<svg height="480pt" viewBox="0 -60 480 480" width="480pt" xmlns="http://www.w3.org/2000/svg"><path d="m72 176h48c35.347656 0 64 28.652344 64 64v112h-176v-112c0-35.347656 28.652344-64 64-64zm0 0" fill="#f072ae"/><path d="m472 352v-112c0-35.347656-28.652344-64-64-64h-48c-35.347656 0-64 28.652344-64 64v112" fill="#00ddc2"/><g fill="#ffdaaa"><path d="m120 176h-48l24 48zm0 0"/><path d="m256 40c-12.246094 12.246094-47.855469 19.792969-63.921875 22.664062-.066406.441407-.09375.890626-.078125 1.335938v32c0 26.507812 21.492188 48 48 48s48-21.492188 48-48v-32c.011719-.3125-.015625-.628906-.078125-.9375-12.941406-3.863281-24.1875-11.992188-31.921875-23.0625zm0 0"/><path d="m344.078125 103.046875c-.0625.3125-.089844.632813-.078125.953125v16c0 22.089844 17.910156 40 40 40s40-17.910156 40-40v-16c.011719-.371094-.011719-.738281-.078125-1.105469-11.304687-3.398437-22.058594-8.414062-31.921875-14.894531-8.800781 8.800781-34.648438 13.265625-47.921875 15.046875zm0 0"/><path d="m384 224 24-48h-48zm0 0"/></g><path d="m280 160 8 56-48-8v144h104v-128c0-35.347656-28.652344-64-64-64zm0 0" fill="#1e81ce"/><path d="m192 216 8-56c-35.347656 0-64 28.652344-64 64v128h104v-144zm0 0" fill="#3d9ae2"/><path d="m280 160h-80l40 48zm0 0" fill="#ffdaaa"/><path d="m192.078125 62.640625c16.066406-2.871094 51.675781-10.402344 63.921875-22.664063 7.734375 11.070313 18.980469 19.199219 31.921875 23.0625 2.648437.621094 5.355469.945313 8.078125.960938 0-30.929688-25.070312-56-56-56s-56 25.070312-56 56c0 0 3.152344-.457031 8.078125-1.335938zm0 0" fill="#898890"/><path d="m288 216-8-56-40 48zm0 0" fill="#1a6fb0"/><path d="m240 208-40-48-8 56zm0 0" fill="#1e81ce"/><path d="m128 232-8-56-24 48zm0 0" fill="#ed539d"/><path d="m96 224-24-48-8 56zm0 0" fill="#ed539d"/><path d="m352 232 32-8-24-48zm0 0" fill="#0b7"/><path d="m416 232-8-56-24 48zm0 0" fill="#0b7"/><path d="m152 104v56h-112v-56c0-30.929688 25.070312-56 56-56s56 25.070312 56 56zm0 0" fill="#a78966"/><path d="m128 128v-32h-64v32c0 17.671875 14.328125 32 32 32s32-14.328125 32-32zm0 0" fill="#ffdaaa"/><path d="m344.078125 103.039062c13.273437-1.773437 39.121094-6.238281 47.921875-15.039062 9.863281 6.480469 20.617188 11.496094 31.921875 14.894531 2.640625.679688 5.351563 1.050781 8.078125 1.105469 0-26.507812-21.492188-48-48-48s-48 21.492188-48 48c0 0 3.199219-.304688 8.078125-.953125zm0 0" fill="#898890"/><path d="m296 96v-24c4.417969 0 8-3.582031 8-8 0-35.347656-28.652344-64-64-64s-64 28.652344-64 64c0 4.417969 3.582031 8 8 8v24c0 30.929688 25.070312 56 56 56s56-25.070312 56-56zm-56-80c22.867188.03125 42.550781 16.160156 47.070312 38.574219-9.820312-3.8125-18.3125-10.421875-24.414062-19.015625-1.328125-1.992188-3.480469-3.28125-5.863281-3.519532-.265625-.027343-.527344-.042968-.792969-.039062-2.121094 0-4.15625.84375-5.65625 2.34375-8.742188 8.746094-36.566406 16.214844-57.382812 20.054688 4.589843-22.332032 24.238281-38.371094 47.039062-38.398438zm0 120c-22.082031-.027344-39.972656-17.917969-40-40l-.054688-26.640625c19.097657-3.109375 37.574219-9.273437 54.71875-18.253906 6.929688 7.855469 15.605469 13.972656 25.335938 17.855469v27.039062c-.027344 22.082031-17.917969 39.972656-40 40zm0 0"/><path d="m408 168h-48c-9.753906.035156-19.398438 2.0625-28.34375 5.953125-13.523438-14.027344-32.171875-21.953125-51.65625-21.953125h-80c-19.484375 0-38.132812 7.925781-51.65625 21.953125-8.945312-3.890625-18.589844-5.917969-28.34375-5.953125h32c4.417969 0 8-3.582031 8-8v-56c0-35.347656-28.652344-64-64-64s-64 28.652344-64 64v56c0 4.417969 3.582031 8 8 8h32c-39.746094.042969-71.9570312 32.253906-72 72v112c0 4.417969 3.582031 8 8 8h464c4.417969 0 8-3.582031 8-8v-112c-.042969-39.746094-32.253906-71.957031-72-72zm-1.601562 53.351562-10.78125-2.695312 8.085937-16.167969zm-11.34375-37.351562-11.054688 22.113281-11.054688-22.113281zm-22.671876 34.65625-10.78125 2.695312 2.695313-18.863281zm-21.734374-33.769531-2.351563 16.464843c-1.660156-4.953124-3.851563-9.707031-6.542969-14.183593 2.894532-1.003907 5.871094-1.765625 8.894532-2.28125zm-72.121094 21.425781-23.449219-3.914062 19.546875-23.453126zm-15.605469-38.3125-22.921875 27.503906-22.921875-27.503906zm-57.546875 10.945312 19.546875 23.453126-23.449219 3.914062zm-86.976562 42.40625-10.78125-2.695312 8.085937-16.167969zm-22.398438-15.199218-11.054688-22.152344h22.109376zm-11.617188 12.542968-10.78125 2.695313 2.695313-18.863281zm47.320313-17.304687-2.351563-16.460937c3.023438.511718 6 1.273437 8.894532 2.277343-2.6875 4.464844-4.882813 9.207031-6.542969 14.144531zm-59.703125-73.390625v-24h48v24c0 13.253906-10.746094 24-24 24s-24-10.746094-24-24zm-24-24c0-26.507812 21.492188-48 48-48s48 21.492188 48 48v48h-16.207031c5.292969-6.882812 8.175781-15.316406 8.207031-24v-32c0-4.417969-3.582031-8-8-8h-64c-4.417969 0-8 3.582031-8 8v32c.03125 8.683594 2.914062 17.117188 8.207031 24h-16.207031zm-32 136c.046875-27.292969 19.75-50.582031 46.65625-55.152344l-6.578125 46.015625c-.375 2.636719.582031 5.289063 2.5625 7.074219 1.976563 1.785156 4.710937 2.46875 7.296875 1.824219l30.0625-7.515625 30.0625 7.515625c.632812.15625 1.285156.238281 1.9375.238281v104h-80v-88h-16v88h-16zm152 0v104h-24v-120c.046875-27.292969 19.75-50.582031 46.65625-55.152344l-6.578125 46.015625c-.328125 2.296875.355469 4.625 1.875 6.378907 1.519531 1.75 3.726563 2.757812 6.046875 2.757812.441406.003906.878906-.035156 1.3125-.113281l38.6875-6.445313v126.558594h-48v-104zm144 104v-104h-16v104h-48v-126.558594l38.6875 6.445313c.433594.078125.871094.117187 1.3125.113281 2.320312 0 4.527344-1.007812 6.046875-2.757812 1.519531-1.753907 2.203125-4.082032 1.875-6.378907l-6.578125-46.015625c26.914062 4.554688 46.625 27.855469 46.65625 55.152344v120zm152 0h-16v-88h-16v88h-80v-104c.652344 0 1.304688-.082031 1.9375-.238281l30.0625-7.515625 30.0625 7.515625c2.585938.644531 5.320312-.039063 7.296875-1.824219 1.980469-1.785156 2.9375-4.4375 2.5625-7.074219l-6.578125-46.015625c26.914062 4.554688 46.625 27.855469 46.65625 55.152344zm0 0"/><path d="m432 120v-8c4.417969 0 8-3.582031 8-8 0-30.929688-25.070312-56-56-56s-56 25.070312-56 56c0 4.417969 3.582031 8 8 8v8c0 26.507812 21.492188 48 48 48s48-21.492188 48-48zm-48-56c18.367188.023438 34.367188 12.527344 38.824219 30.34375-9.304688-3.226562-18.171875-7.59375-26.398438-13.007812-3.175781-2.113282-7.402343-1.691407-10.097656 1.007812-5.648437 5.648438-25.070313 10.222656-41.296875 12.527344 4.261719-18.078125 20.394531-30.859375 38.96875-30.871094zm0 88c-8.496094.035156-16.65625-3.328125-22.664062-9.335938-6.007813-6.007812-9.371094-14.167968-9.335938-22.664062v-9.96875c14.097656-1.691406 27.78125-5.863281 40.425781-12.328125 7.457031 4.527344 15.355469 8.285156 23.574219 11.21875v11.078125c0 17.671875-14.328125 32-32 32zm0 0"/></svg>