<svg height="490pt" viewBox="-7 0 490 490.23046" width="490pt" xmlns="http://www.w3.org/2000/svg"><path d="m106.589844 460.320312-60.160156 21.917969-38.320313-105.277343 60.160156-21.839844zm0 0" fill="#3d9ae2"/><path d="m181.949219 433.519531 5.277343 14.480469-75.199218 27.359375-5.4375-15.039063-38.320313-105.199218-5.441406-15.042969 75.121094-27.359375 12.160156 33.28125zm0 0" fill="#1e81ce"/><path d="m355.226562 334.960938 77.203126-44.5625c7.425781-4.285157 16.578124-4.285157 24.003906.003906 7.429687 4.292968 12 12.21875 11.996094 20.796875.035156 8.589843-4.550782 16.53125-12 20.800781l-173.203126 100h-97.199218l-4.078125 1.519531-31.839844-87.519531 61.117187-34h120c6.367188 0 12.46875 2.53125 16.960938 7.039062 2.5 2.464844 4.390625 5.476563 5.519531 8.800782.875 2.28125 1.386719 4.683594 1.519531 7.121094zm0 0" fill="#ffdaaa"/><path d="m227.226562 248c.011719 2.652344.671876 5.261719 1.921876 7.601562l-1.921876.398438h-168v-231.761719h24v207.761719h144zm0 0" fill="#00ccb3"/><path d="m403.226562 232v-207.761719h24v231.761719h-168l-1.917968-.398438c1.25-2.339843 1.910156-4.949218 1.917968-7.601562v-16zm0 0" fill="#00ccb3"/><path d="m259.226562 232v16c0 8.835938-7.160156 16-16 16-8.835937 0-16-7.164062-16-16v-224h32zm0 0" fill="#ff9811"/><path d="m227.226562 24v208h-144v-224h144zm0 0" fill="#e6e7e8"/><path d="m403.226562 24.238281v207.761719h-144v-224h144zm0 0" fill="#e6e7e8"/><path d="m472.148438 295.199219c-8.910157-15.210938-28.398438-20.429688-43.71875-11.710938l-68.28125 39.390625c-1.484376-3.535156-3.621094-6.753906-6.304688-9.496094-5.984375-6.019531-14.125-9.398437-22.617188-9.382812h-120c-1.359374 0-2.695312.347656-3.886718 1.007812l-52.910156 29.441407-8.921876-24.496094c-1.503906-4.15625-6.09375-6.308594-10.246093-4.800781l-75.203125 27.359375c-1.996094.722656-3.625 2.210937-4.523438 4.132812-.902344 1.925781-1 4.128907-.273437 6.125l2.734375 7.511719-52.601563 19.167969c-1.996093.722656-3.625 2.207031-4.523437 4.132812-.902344 1.921875-1 4.125-.273438 6.121094l38.328125 105.25c1.503907 4.15625 6.089844 6.304687 10.246094 4.800781l52.632813-19.152344 2.734374 7.511719c1.503907 4.15625 6.09375 6.304688 10.25 4.796875l75.199219-27.367187c4.15625-1.503907 6.304688-6.089844 4.800781-10.246094l-1.960937-5.296875h90.398437c1.40625 0 2.785157-.371094 4-1.070312l173.203126-100c9.949218-5.675782 16.066406-16.273438 16-27.730469-.011719-5.613281-1.484376-11.128907-4.28125-16zm-420.921876 176.800781-32.796874-90.246094 45.101562-16.417968 32.839844 90.207031zm65.601563-6.847656-43.769531-120.351563 60.136718-21.898437 43.777344 120.296875zm335.601563-140.082032-171.34375 98.929688h-94.082032l-27.046875-74.320312 53.34375-29.679688h117.925781c4.242188-.007812 8.308594 1.679688 11.296876 4.6875 1.734374 1.730469 3.03125 3.851562 3.777343 6.183594.644531 1.632812.960938 3.375.925781 5.128906 0 8.835938-7.160156 16-16 16h-88v16h88c16.15625-.050781 29.726563-12.15625 31.617188-28.199219l73.550781-42.449219c4.949219-2.855468 11.046875-2.859374 16 0 4.949219 2.855469 8 8.132813 8 13.847657.042969 5.722656-3.003906 11.023437-7.964843 13.871093zm0 0"/><path d="m83.226562 240h136v8c0 13.253906 10.746094 24 24 24 13.257813 0 24-10.746094 24-24v-8h136c4.421876 0 8-3.582031 8-8v-224c0-4.417969-3.578124-8-8-8h-144c-4.417968 0-8 3.582031-8 8v8h-16v-8c0-4.417969-3.578124-8-8-8h-144c-4.417968 0-8 3.582031-8 8v224c0 4.417969 3.582032 8 8 8zm184-224h128v208h-128zm-16 16v216c0 4.417969-3.578124 8-8 8-4.417968 0-8-3.582031-8-8v-216zm-160-16h128v208h-128zm0 0"/><path d="m59.226562 264h152v-16h-144v-223.769531h-16v231.769531c0 4.417969 3.582032 8 8 8zm0 0"/><path d="m107.226562 48h16v16h-16zm0 0"/><path d="m139.226562 48h64v16h-64zm0 0"/><path d="m107.226562 80h96v16h-96zm0 0"/><path d="m107.226562 112h96v16h-96zm0 0"/><path d="m107.226562 144h96v16h-96zm0 0"/><path d="m275.226562 264h152c4.421876 0 8-3.582031 8-8v-231.769531h-16v223.769531h-144zm0 0"/><path d="m347.226562 48h32v16h-32zm0 0"/><path d="m283.226562 48h48v16h-48zm0 0"/><path d="m283.226562 80h96v16h-96zm0 0"/><path d="m283.226562 112h96v16h-96zm0 0"/><path d="m283.226562 144h96v16h-96zm0 0"/><path d="m107.226562 176h96v16h-96zm0 0"/><path d="m283.226562 176h96v16h-96zm0 0"/><path d="m451.226562 216h16v16h-16zm0 0"/><path d="m451.226562 184h16v16h-16zm0 0"/><path d="m451.226562 88h16v80h-16zm0 0"/><path d="m19.226562 216h16v16h-16zm0 0"/><path d="m19.226562 184h16v16h-16zm0 0"/><path d="m19.226562 88h16v80h-16zm0 0"/></svg>