<?xml version="1.0"?>
<svg xmlns="http://www.w3.org/2000/svg" height="512px" viewBox="0 -72 480 480" width="512px" class=""><g><path d="m72 128c13.253906 0 24-10.746094 24-24s-10.746094-24-24-24-24 10.746094-24 24 10.746094 24 24 24zm0-32c4.417969 0 8 3.582031 8 8s-3.582031 8-8 8-8-3.582031-8-8 3.582031-8 8-8zm0 0" data-original="#000000" class="active-path" data-old_color="#000000" fill="#295E7B"/><path d="m136 64h32v16h-32zm0 0" data-original="#000000" class="active-path" data-old_color="#000000" fill="#295E7B"/><path d="m136 96h32v16h-32zm0 0" data-original="#000000" class="active-path" data-old_color="#000000" fill="#295E7B"/><path d="m408 160c13.253906 0 24-10.746094 24-24s-10.746094-24-24-24-24 10.746094-24 24 10.746094 24 24 24zm0-32c4.417969 0 8 3.582031 8 8s-3.582031 8-8 8-8-3.582031-8-8 3.582031-8 8-8zm0 0" data-original="#000000" class="active-path" data-old_color="#000000" fill="#295E7B"/><path d="m472 288h-16v-200c0-4.417969-3.582031-8-8-8h-72v-72c0-4.417969-3.582031-8-8-8h-96c-4.417969 0-8 3.582031-8 8v56h-64v-40c0-4.417969-3.582031-8-8-8h-80c-4.417969 0-8 3.582031-8 8v24h-72c-4.417969 0-8 3.582031-8 8v232h-16c-4.417969 0-8 3.582031-8 8v32c0 4.417969 3.582031 8 8 8h464c4.417969 0 8-3.582031 8-8v-32c0-4.417969-3.582031-8-8-8zm-192 0v-216h80v216zm-80 0v-24h64v24zm240-40h-64v-8h64zm-80-192h-80v-8h80zm-96 192h-64v-8h64zm112 16h64v24h-64zm64-168v128h-64v-128zm-80-80v16h-80v-16zm-96 64v144h-64v-144zm-144-48h64v256h-64zm-80 208h64v16h-64zm64-176v160h-64v-160zm-64 208h64v16h-64zm424 48h-448v-16h448zm0 0" data-original="#000000" class="active-path" data-old_color="#000000" fill="#295E7B"/></g> </svg>
