<svg height="476pt" viewBox="0 -21 476.32719 476" width="476pt" xmlns="http://www.w3.org/2000/svg"><g fill="#e6e7e8"><path d="m155.132812 136.164062v64h-24v-64zm0 0"/><path d="m171.132812 104.164062v32h-24v-64h24zm0 0"/><path d="m379.132812 8.164062v64h-24v-64zm0 0"/></g><path d="m131.132812 136.164062v64h-16c-17.671874 0-32-14.328124-32-32 0-17.671874 14.328126-32 32-32zm0 0" fill="#00ccb3"/><path d="m417.773438 17.523438c9.164062 9.152343 11.90625 22.925781 6.949218 34.890624-4.957031 11.964844-16.636718 19.757813-29.589844 19.75h-16v-64h16c8.488282.015626 16.621094 3.378907 22.640626 9.359376zm0 0" fill="#ff9811"/><path d="m147.132812 72.164062v64h-16c-17.671874 0-32-14.328124-32-32 0-17.671874 14.328126-32 32-32zm0 0" fill="#ff6243"/><path d="m171.132812 136.164062h264c-10.847656 6.878907-17.007812 19.191407-16 32-1.007812 12.808594 5.152344 25.121094 16 32h-280v-64zm0 0" fill="#00ddc2"/><path d="m355.132812 40.164062v32h-280c10.851563-6.878906 17.011719-19.191406 16-32 1.011719-12.808593-5.148437-25.121093-16-32h280zm0 0" fill="#ffb655"/><path d="m171.132812 104.164062v-32h280c-10.847656 6.878907-17.007812 19.191407-16 32-1.007812 12.808594 5.152344 25.121094 16 32h-280zm0 0" fill="#ff7956"/><path d="m106.496094 404.484375-60.160156 21.917969-38.320313-105.277344 60.160156-21.839844zm0 0" fill="#3d9ae2"/><path d="m181.855469 377.683594 5.277343 14.480468-75.199218 27.359376-5.4375-15.039063-38.320313-105.199219-5.441406-15.042968 75.121094-27.359376 12.160156 33.28125zm0 0" fill="#1e81ce"/><path d="m355.132812 279.125 77.203126-44.5625c7.425781-4.289062 16.578124-4.285156 24.003906.003906 7.429687 4.292969 12 12.21875 11.996094 20.796875.035156 8.589844-4.550782 16.53125-12 20.800781l-173.203126 100h-97.199218l-4.078125 1.519532-31.839844-87.519532 61.117187-34h120c6.367188 0 12.46875 2.53125 16.960938 7.039063 2.5 2.464844 4.390625 5.476563 5.519531 8.800781.875 2.28125 1.386719 4.683594 1.519531 7.121094zm0 0" fill="#ffdaaa"/><path d="m472.054688 239.363281c-8.917969-15.203125-28.394532-20.421875-43.71875-11.710937l-68.28125 39.390625c-1.484376-3.535157-3.621094-6.753907-6.304688-9.496094-5.980469-6.023437-14.125-9.40625-22.617188-9.382813h-120c-1.359374 0-2.695312.347657-3.886718 1.007813l-52.910156 29.441406-8.921876-24.496093c-1.503906-4.15625-6.09375-6.308594-10.246093-4.800782l-75.203125 27.359375c-1.996094.722657-3.625 2.207031-4.523438 4.132813-.902344 1.921875-1 4.125-.273437 6.121094l2.734375 7.515624-52.625 19.199219c-4.15625 1.503907-6.304688 6.089844-4.800782 10.246094l38.347657 105.226563c.71875 1.996093 2.207031 3.625 4.132812 4.523437 1.921875.902344 4.125 1 6.121094.273437l52.632813-19.160156 2.734374 7.523438c1.503907 4.15625 6.09375 6.304687 10.25 4.796875l75.199219-27.359375c4.15625-1.503906 6.304688-6.09375 4.800781-10.246094l-1.960937-5.304688h90.398437c1.40625 0 2.785157-.371093 4-1.074218l173.195313-100c9.957031-5.664063 16.074219-16.269532 16-27.726563-.003906-5.613281-1.476563-11.132812-4.273437-16zm-420.921876 176.800781-32.796874-90.25 45.101562-16.421874 32.839844 90.214843zm65.601563-6.847656-43.769531-120.351562 60.136718-21.898438 43.777344 120.296875zm335.601563-140.082031-171.34375 98.929687h-94.082032l-27.046875-74.320312 53.34375-29.679688h117.925781c4.246094-.011718 8.316407 1.679688 11.304688 4.695313 1.730469 1.722656 3.023438 3.835937 3.769531 6.160156.640625 1.636719.957031 3.386719.925781 5.144531 0 8.835938-7.160156 16-16 16h-88v16h88c16.15625-.050781 29.726563-12.15625 31.617188-28.199218l73.542969-42.449219c4.949219-2.855469 11.046875-2.859375 15.996093-.003906 4.953126 2.859375 8.003907 8.136719 8.003907 13.851562.046875 5.722657-2.996094 11.023438-7.957031 13.871094zm0 0"/><path d="m71.46875 65.050781c-3.28125 1.691407-4.980469 5.410157-4.109375 8.996094.871094 3.589844 4.082031 6.117187 7.773437 6.117187h24.210938c-11.699219 15.125-10.804688 36.472657 2.109375 50.566407-18.226563 6.613281-29.066406 25.371093-25.691406 44.464843 3.371093 19.09375 19.980469 33.003907 39.371093 32.96875h320c3.65625-.015624 6.832032-2.519531 7.699219-6.074218.878907-3.570313-.765625-7.28125-4-9.03125-8.125-5.5625-12.601562-15.089844-11.699219-24.894532-.6875-9.210937 3.171876-18.175781 10.335938-24h13.664062c3.65625-.015624 6.832032-2.519531 7.699219-6.074218.878907-3.570313-.765625-7.28125-4-9.03125-8.125-5.5625-12.601562-15.089844-11.699219-24.894532-.882812-9.746093 3.539063-19.21875 11.578126-24.800781 3.371093-1.632812 5.160156-5.386719 4.300781-9.03125-.859375-3.648437-4.132813-6.210937-7.878907-6.167969h-24.207031c5.296875-6.882812 8.179688-15.316406 8.207031-24-.023437-22.082031-17.917968-39.972656-40-40h-320c-3.65625.011719-6.828124 2.519532-7.695312 6.070313-.878906 3.570313.765625 7.285156 4 9.035156 8.125 5.5625 12.601562 15.089844 11.695312 24.894531.898438 9.792969-3.558593 19.3125-11.664062 24.886719zm75.664062 127.113281h-8v-48h8zm16-64h-8v-48h8zm-24 0h-8c-13.253906 0-24-10.746093-24-24 0-13.253906 10.746094-24 24-24h8zm-48 40c0-13.253906 10.746094-24 24-24h8v48h-8c-13.253906 0-24-10.746093-24-24zm325.761719 24h-253.761719v-16h232v-16h-232v-16h253.761719c-7.679687 15.078126-7.679687 32.921876 0 48zm16-64h-253.761719v-16h232v-16h-232v-16h253.761719c-3.941406 7.375-5.921875 15.640626-5.761719 24-.160156 8.359376 1.820313 16.625 5.761719 24zm-69.761719-112h8v48h-8zm56 24c0 13.253907-10.742187 24-24 24h-8v-48h8c13.257813 0 24 10.746094 24 24zm-325.757812-24h253.757812v16h-232v16h232v16h-253.757812c3.941406-7.375 5.921875-15.640624 5.757812-24 .164063-8.359374-1.816406-16.625-5.757812-24zm0 0"/></svg>