<?xml version="1.0"?>
<svg xmlns="http://www.w3.org/2000/svg" height="512px" viewBox="0 0 482.86474 482" width="512px"><g><path d="m473.441406 248.320312c-5.984375-6.039062-14.128906-9.4375-22.628906-9.4375s-16.648438 3.398438-22.628906 9.4375l-93.839844 93.710938-.183594.175781c4.726563-9.914062 4.042969-21.558593-1.820312-30.847656-5.859375-9.292969-16.074219-14.925781-27.058594-14.925781h-168c-2.125 0-4.15625.84375-5.65625 2.34375l-27.769531 27.765625-19.648438-34.03125c-2.207031-3.824219-7.101562-5.136719-10.925781-2.925781l-69.28125 40c-3.828125 2.207031-5.136719 7.101562-2.929688 10.925781l80 138.5625c2.210938 3.824219 7.101563 5.136719 10.929688 2.925781l69.28125-40c3.824219-2.207031 5.136719-7.101562 2.925781-10.925781l-13.070312-22.640625h190.863281c10.605469-.027344 20.773438-4.230469 28.296875-11.707032l103.109375-103.199218c6.050781-5.964844 9.457031-14.109375 9.457031-22.605469 0-8.5-3.40625-16.644531-9.457031-22.609375zm-382.511718 215.824219-72-124.703125 55.421874-32 72 124.703125zm371.148437-181.929687-103.117187 103.203125c-4.511719 4.476562-10.605469 6.996093-16.960938 7.015625h-200.097656l-3.292969-5.707032-26.457031-45.855468 28.4375-28.4375h164.691406c8.835938 0 16 7.164062 16 16 0 8.835937-7.164062 16-16 16h-88v16h111.359375c6.386719.015625 12.515625-2.527344 17.015625-7.066406l93.863281-93.734376c6.292969-6.109374 16.300781-6.109374 22.59375 0 3.046875 2.96875 4.769531 7.042969 4.769531 11.300782 0 4.253906-1.722656 8.332031-4.769531 11.296875zm0 0" data-original="#000000" class="active-path" data-old_color="#000000" fill="#295E7B"/><path d="m161.28125 272.433594h176c4.417969 0 8-3.582032 8-8v-256c0-4.417969-3.582031-8-8-8h-176c-22.082031.023437-39.976562 17.917968-40 40v192c-.011719 10.609375 4.199219 20.792968 11.703125 28.292968 7.503906 7.503907 17.683594 11.714844 28.296875 11.707032zm0-16c-13.257812 0-24-10.746094-24-24 0-13.257813 10.742188-24 24-24h168v16h-168v16h168v16zm168-64h-160v-176h160zm-192-152c.039062-10.136719 6.445312-19.152344 16-22.527344v175.324219c-.570312.121093-1.089844.363281-1.648438.507812-1.628906.394531-3.234374.890625-4.800781 1.484375-.800781.3125-1.550781.648438-2.320312 1.007813-1.457031.683593-2.875 1.453125-4.238281 2.304687-.671876.417969-1.355469.800782-1.992188 1.273438-.328125.222656-.691406.390625-1 .632812zm0 0" data-original="#000000" class="active-path" data-old_color="#000000" fill="#295E7B"/><path d="m201.28125 112.433594h96c4.417969 0 8-3.582032 8-8v-48c0-4.417969-3.582031-8-8-8h-96c-4.417969 0-8 3.582031-8 8v48c0 4.417968 3.582031 8 8 8zm8-48h80v32h-80zm0 0" data-original="#000000" class="active-path" data-old_color="#000000" fill="#295E7B"/></g> </svg>
